<?xml version="1.0" encoding="UTF-8" ?>
<svg height="300" width="700" xmlns="http://www.w3.org/2000/svg">
<style>svg { fill: white; }            </style>
<rect fill="gray" height="100%" width="100%" x="0" y="0"/>
<path d="M 0 290 L 100 250 L 150 150 L 300 200 L 400 285 L 550 285 L 699 220" fill="none" stroke="black" stroke-width="3"/>
<path d="M 397 281 L 401 289" fill="none" stroke="lime" stroke-width="1"/>
<path d="M 397 281 L 401 289" fill="none" stroke="lime" stroke-width="1"/>
<path d="M 397 281 L 401 289" fill="none" stroke="lime" stroke-width="1"/>
<path d="M 397 281 L 401 289" fill="none" stroke="lime" stroke-width="1"/>
<path d="M 397 281 L 401 289" fill="none" stroke="lime" stroke-width="1"/>
<path d="M 397 281 L 401 289" fill="none" stroke="lime" stroke-width="1"/>
<path d="M 397 281 L 401 289" fill="none" stroke="lime" stroke-width="1"/>
<path d="M 397 281 L 401 289" fill="none" stroke="lime" stroke-width="1"/>
<path d="M 397 281 L 401 289" fill="none" stroke="lime" stroke-width="1"/>
<path d="M 397 281 L 401 289" fill="none" stroke="lime" stroke-width="1"/>
<path d="M 397 281 L 401 289" fill="none" stroke="lime" stroke-width="1"/>
<path d="M 397 281 L 401 289" fill="none" stroke="lime" stroke-width="1"/>
<path d="M 397 281 L 401 289" fill="none" stroke="lime" stroke-width="1"/>
<path d="M 397 281 L 401 289" fill="none" stroke="lime" stroke-width="1"/>
<path d="M 397 281 L 401 289" fill="none" stroke="lime" stroke-width="1"/>
<path d="M 397 281 L 401 289" fill="none" stroke="lime" stroke-width="1"/>
<path d="M 397 281 L 401 289" fill="none" stroke="lime" stroke-width="1"/>
<path d="M 397 281 L 401 289" fill="none" stroke="lime" stroke-width="1"/>
<path d="M 397 281 L 401 289" fill="none" stroke="lime" stroke-width="1"/>
<path d="M 397 281 L 401 289" fill="none" stroke="lime" stroke-width="1"/>
<path d="M 397 281 L 401 289" fill="none" stroke="lime" stroke-width="1"/>
<path d="M 397 281 L 401 289" fill="none" stroke="lime" stroke-width="1"/>
<path d="M 397 281 L 401 289" fill="none" stroke="lime" stroke-width="1"/>
<path d="M 397 281 L 401 289" fill="none" stroke="lime" stroke-width="1"/>
<path d="M 397 281 L 401 289" fill="none" stroke="lime" stroke-width="1"/>
<path d="M 397 281 L 401 289" fill="none" stroke="lime" stroke-width="1"/>
<path d="M 397 281 L 401 289" fill="none" stroke="lime" stroke-width="1"/>
<path d="M 397 281 L 401 289" fill="none" stroke="lime" stroke-width="1"/>
<path d="M 397 281 L 401 289" fill="none" stroke="lime" stroke-width="1"/>
<path d="M 397 281 L 401 289" fill="none" stroke="lime" stroke-width="1"/>
<path d="M 397 281 L 401 289" fill="none" stroke="lime" stroke-width="1"/>
<path d="M 397 281 L 401 289" fill="none" stroke="lime" stroke-width="1"/>
<path d="M 397 281 L 401 289" fill="none" stroke="lime" stroke-width="1"/>
<path d="M 397 281 L 401 289" fill="none" stroke="lime" stroke-width="1"/>
<path d="M 397 281 L 401 289" fill="none" stroke="lime" stroke-width="1"/>
<path d="M 397 281 L 401 289" fill="none" stroke="lime" stroke-width="1"/>
<path d="M 397 281 L 401 289" fill="none" stroke="lime" stroke-width="1"/>
<path d="M 397 281 L 401 289" fill="none" stroke="lime" stroke-width="1"/>
<path d="M 397 281 L 401 289" fill="none" stroke="lime" stroke-width="1"/>
<path d="M 397 281 L 401 289" fill="none" stroke="lime" stroke-width="1"/>
<path d="M 397 281 L 401 289" fill="none" stroke="lime" stroke-width="1"/>
<path d="M 397 281 L 401 289" fill="none" stroke="lime" stroke-width="1"/>
<path d="M 397 281 L 401 289" fill="none" stroke="lime" stroke-width="1"/>
<path d="M 397 281 L 401 289" fill="none" stroke="lime" stroke-width="1"/>
<path d="M 397 281 L 401 289" fill="none" stroke="lime" stroke-width="1"/>
<path d="M 397 281 L 401 289" fill="none" stroke="lime" stroke-width="1"/>
<path d="M 397 281 L 401 289" fill="none" stroke="lime" stroke-width="1"/>
<path d="M 397 281 L 401 289" fill="none" stroke="lime" stroke-width="1"/>
<path d="M 397 281 L 401 289" fill="none" stroke="lime" stroke-width="1"/>
<path d="M 397 281 L 401 289" fill="none" stroke="lime" stroke-width="1"/>
<path d="M 397 281 L 401 289" fill="none" stroke="lime" stroke-width="1"/>
<path d="M 397 281 L 401 289" fill="none" stroke="lime" stroke-width="1"/>
<path d="M 397 281 L 401 289" fill="none" stroke="lime" stroke-width="1"/>
<path d="M 397 281 L 401 289" fill="none" stroke="lime" stroke-width="1"/>
<path d="M 397 281 L 401 289" fill="none" stroke="lime" stroke-width="1"/>
<path d="M 397 281 L 401 289" fill="none" stroke="lime" stroke-width="1"/>
<path d="M 397 281 L 401 289" fill="none" stroke="lime" stroke-width="1"/>
<path d="M 397 281 L 401 289" fill="none" stroke="lime" stroke-width="1"/>
<path d="M 397 281 L 401 289" fill="none" stroke="lime" stroke-width="1"/>
<path d="M 397 281 L 401 289" fill="none" stroke="lime" stroke-width="1"/>
<path d="M 397 281 L 401 289" fill="none" stroke="lime" stroke-width="1"/>
<path d="M 397 281 L 401 289" fill="none" stroke="lime" stroke-width="1"/>
<path d="M 397 281 L 401 289" fill="none" stroke="lime" stroke-width="1"/>
<path d="M 397 281 L 401 289" fill="none" stroke="lime" stroke-width="1"/>
<path d="M 397 281 L 401 289" fill="none" stroke="lime" stroke-width="1"/>
<path d="M 397 281 L 401 289" fill="none" stroke="lime" stroke-width="1"/>
<path d="M 397 281 L 401 289" fill="none" stroke="lime" stroke-width="1"/>
<path d="M 397 281 L 401 289" fill="none" stroke="lime" stroke-width="1"/>
<path d="M 397 281 L 401 289" fill="none" stroke="lime" stroke-width="1"/>
<path d="M 397 281 L 401 289" fill="none" stroke="lime" stroke-width="1"/>
<path d="M 397 281 L 401 289" fill="none" stroke="lime" stroke-width="1"/>
<path d="M 397 281 L 401 289" fill="none" stroke="lime" stroke-width="1"/>
<path d="M 397 281 L 401 289" fill="none" stroke="lime" stroke-width="1"/>
<path d="M 397 281 L 401 289" fill="none" stroke="lime" stroke-width="1"/>
<path d="M 397 281 L 401 289" fill="none" stroke="lime" stroke-width="1"/>
<path d="M 397 281 L 401 289" fill="none" stroke="lime" stroke-width="1"/>
<path d="M 397 281 L 401 289" fill="none" stroke="lime" stroke-width="1"/>
<path d="M 397 281 L 401 289" fill="none" stroke="lime" stroke-width="1"/>
<path d="M 397 281 L 401 289" fill="none" stroke="lime" stroke-width="1"/>
<path d="M 397 281 L 401 289" fill="none" stroke="lime" stroke-width="1"/>
<path d="M 397 281 L 401 289" fill="none" stroke="lime" stroke-width="1"/>
<path d="M 397 281 L 401 289" fill="none" stroke="lime" stroke-width="1"/>
<path d="M 397 281 L 401 289" fill="none" stroke="lime" stroke-width="1"/>
<path d="M 397 281 L 401 289" fill="none" stroke="lime" stroke-width="1"/>
<path d="M 397 281 L 401 289" fill="none" stroke="lime" stroke-width="1"/>
<path d="M 397 281 L 401 289" fill="none" stroke="lime" stroke-width="1"/>
<path d="M 397 281 L 401 289" fill="none" stroke="lime" stroke-width="1"/>
<path d="M 397 281 L 401 289" fill="none" stroke="lime" stroke-width="1"/>
<path d="M 397 281 L 401 289" fill="none" stroke="lime" stroke-width="1"/>
<path d="M 397 281 L 401 289" fill="none" stroke="lime" stroke-width="1"/>
<path d="M 397 281 L 401 289" fill="none" stroke="lime" stroke-width="1"/>
<path d="M 397 281 L 401 289" fill="none" stroke="lime" stroke-width="1"/>
<path d="M 397 281 L 401 289" fill="none" stroke="lime" stroke-width="1"/>
<path d="M 397 281 L 401 289" fill="none" stroke="lime" stroke-width="1"/>
<path d="M 397 281 L 401 289" fill="none" stroke="lime" stroke-width="1"/>
<path d="M 397 281 L 401 289" fill="none" stroke="lime" stroke-width="1"/>
<path d="M 397 281 L 401 289" fill="none" stroke="lime" stroke-width="1"/>
<path d="M 397 281 L 401 289" fill="none" stroke="lime" stroke-width="1"/>
<path d="M 397 281 L 401 289" fill="none" stroke="lime" stroke-width="1"/>
<path d="M 397 281 L 401 289" fill="none" stroke="lime" stroke-width="1"/>
<path d="M 397 281 L 401 289" fill="none" stroke="lime" stroke-width="1"/>
<path d="M 397 281 L 401 289" fill="none" stroke="lime" stroke-width="1"/>
<path d="M 397 281 L 401 289" fill="none" stroke="lime" stroke-width="1"/>
<path d="M 397 281 L 401 289" fill="none" stroke="lime" stroke-width="1"/>
<path d="M 397 281 L 401 289" fill="none" stroke="lime" stroke-width="1"/>
<path d="M 397 281 L 401 289" fill="none" stroke="lime" stroke-width="1"/>
<path d="M 397 281 L 401 289" fill="none" stroke="lime" stroke-width="1"/>
<path d="M 397 281 L 401 289" fill="none" stroke="lime" stroke-width="1"/>
<path d="M 397 281 L 401 289" fill="none" stroke="lime" stroke-width="1"/>
<path d="M 397 281 L 401 289" fill="none" stroke="lime" stroke-width="1"/>
<path d="M 397 281 L 401 289" fill="none" stroke="lime" stroke-width="1"/>
<path d="M 397 281 L 401 289" fill="none" stroke="lime" stroke-width="1"/>
<path d="M 397 281 L 401 289" fill="none" stroke="lime" stroke-width="1"/>
<path d="M 397 281 L 401 289" fill="none" stroke="lime" stroke-width="1"/>
<path d="M 397 281 L 401 289" fill="none" stroke="lime" stroke-width="1"/>
<path d="M 397 281 L 401 289" fill="none" stroke="lime" stroke-width="1"/>
<path d="M 397 281 L 401 289" fill="none" stroke="lime" stroke-width="1"/>
<path d="M 397 281 L 401 289" fill="none" stroke="lime" stroke-width="1"/>
<path d="M 397 281 L 401 289" fill="none" stroke="lime" stroke-width="1"/>
<path d="M 397 281 L 401 289" fill="none" stroke="lime" stroke-width="1"/>
<path d="M 397 281 L 401 289" fill="none" stroke="lime" stroke-width="1"/>
<path d="M 397 281 L 401 289" fill="none" stroke="lime" stroke-width="1"/>
<path d="M 397 281 L 401 289" fill="none" stroke="lime" stroke-width="1"/>
<path d="M 397 281 L 401 289" fill="none" stroke="lime" stroke-width="1"/>
<path d="M 397 281 L 401 289" fill="none" stroke="lime" stroke-width="1"/>
<path d="M 397 281 L 401 289" fill="none" stroke="lime" stroke-width="1"/>
<path d="M 397 281 L 401 289" fill="none" stroke="lime" stroke-width="1"/>
<path d="M 397 281 L 401 289" fill="none" stroke="lime" stroke-width="1"/>
<path d="M 397 281 L 401 289" fill="none" stroke="lime" stroke-width="1"/>
<path d="M 397 281 L 401 289" fill="none" stroke="lime" stroke-width="1"/>
<path d="M 397 281 L 401 289" fill="none" stroke="lime" stroke-width="1"/>
<path d="M 397 281 L 401 289" fill="none" stroke="lime" stroke-width="1"/>
<path d="M 397 281 L 401 289" fill="none" stroke="lime" stroke-width="1"/>
<path d="M 397 281 L 401 289" fill="none" stroke="lime" stroke-width="1"/>
<path d="M 397 281 L 401 289" fill="none" stroke="lime" stroke-width="1"/>
<path d="M 397 281 L 401 289" fill="none" stroke="lime" stroke-width="1"/>
<path d="M 397 281 L 401 289" fill="none" stroke="lime" stroke-width="1"/>
<path d="M 397 281 L 401 289" fill="none" stroke="lime" stroke-width="1"/>
<path d="M 397 281 L 401 289" fill="none" stroke="lime" stroke-width="1"/>
<path d="M 397 281 L 401 289" fill="none" stroke="lime" stroke-width="1"/>
<path d="M 397 281 L 401 289" fill="none" stroke="lime" stroke-width="1"/>
<path d="M 397 281 L 401 289" fill="none" stroke="lime" stroke-width="1"/>
<path d="M 397 281 L 401 289" fill="none" stroke="lime" stroke-width="1"/>
<path d="M 397 281 L 401 289" fill="none" stroke="lime" stroke-width="1"/>
<path d="M 397 281 L 401 289" fill="none" stroke="lime" stroke-width="1"/>
<path d="M 397 281 L 401 289" fill="none" stroke="lime" stroke-width="1"/>
<path d="M 397 281 L 401 289" fill="none" stroke="lime" stroke-width="1"/>
<path d="M 397 281 L 401 289" fill="none" stroke="lime" stroke-width="1"/>
<path d="M 397 281 L 401 289" fill="none" stroke="lime" stroke-width="1"/>
<path d="M 397 281 L 401 289" fill="none" stroke="lime" stroke-width="1"/>
<path d="M 397 281 L 401 289" fill="none" stroke="lime" stroke-width="1"/>
<path d="M 397 281 L 401 289" fill="none" stroke="lime" stroke-width="1"/>
<path d="M 397 281 L 401 289" fill="none" stroke="lime" stroke-width="1"/>
<path d="M 397 281 L 401 289" fill="none" stroke="lime" stroke-width="1"/>
<path d="M 397 281 L 401 289" fill="none" stroke="lime" stroke-width="1"/>
<path d="M 397 281 L 401 289" fill="none" stroke="lime" stroke-width="1"/>
<path d="M 397 281 L 401 289" fill="none" stroke="lime" stroke-width="1"/>
<path d="M 397 281 L 401 289" fill="none" stroke="lime" stroke-width="1"/>
<path d="M 397 281 L 401 289" fill="none" stroke="lime" stroke-width="1"/>
<path d="M 397 281 L 401 289" fill="none" stroke="lime" stroke-width="1"/>
<path d="M 397 281 L 401 289" fill="none" stroke="lime" stroke-width="1"/>
<path d="M 397 281 L 401 289" fill="none" stroke="lime" stroke-width="1"/>
<path d="M 397 281 L 401 289" fill="none" stroke="lime" stroke-width="1"/>
<path d="M 397 281 L 401 289" fill="none" stroke="lime" stroke-width="1"/>
<path d="M 397 281 L 401 289" fill="none" stroke="lime" stroke-width="1"/>
<path d="M 397 281 L 401 289" fill="none" stroke="lime" stroke-width="1"/>
<path d="M 397 281 L 401 289" fill="none" stroke="lime" stroke-width="1"/>
<path d="M 397 281 L 401 289" fill="none" stroke="lime" stroke-width="1"/>
<path d="M 397 281 L 401 289" fill="none" stroke="lime" stroke-width="1"/>
<path d="M 397 281 L 401 289" fill="none" stroke="lime" stroke-width="1"/>
<path d="M 397 281 L 401 289" fill="none" stroke="lime" stroke-width="1"/>
<path d="M 397 281 L 401 289" fill="none" stroke="lime" stroke-width="1"/>
<path d="M 397 281 L 401 289" fill="none" stroke="lime" stroke-width="1"/>
<path d="M 397 281 L 401 289" fill="none" stroke="lime" stroke-width="1"/>
<path d="M 397 281 L 401 289" fill="none" stroke="lime" stroke-width="1"/>
<path d="M 397 281 L 401 289" fill="none" stroke="lime" stroke-width="1"/>
<path d="M 397 281 L 401 289" fill="none" stroke="lime" stroke-width="1"/>
<path d="M 397 281 L 401 289" fill="none" stroke="lime" stroke-width="1"/>
<path d="M 397 281 L 401 289" fill="none" stroke="lime" stroke-width="1"/>
<path d="M 397 281 L 401 289" fill="none" stroke="lime" stroke-width="1"/>
<path d="M 397 281 L 401 289" fill="none" stroke="lime" stroke-width="1"/>
<path d="M 397 281 L 401 289" fill="none" stroke="lime" stroke-width="1"/>
<path d="M 397 281 L 401 289" fill="none" stroke="lime" stroke-width="1"/>
<path d="M 397 281 L 401 289" fill="none" stroke="lime" stroke-width="1"/>
<path d="M 397 281 L 401 289" fill="none" stroke="lime" stroke-width="1"/>
<path d="M 397 281 L 401 289" fill="none" stroke="lime" stroke-width="1"/>
<path d="M 397 281 L 401 289" fill="none" stroke="lime" stroke-width="1"/>
<path d="M 397 281 L 401 289" fill="none" stroke="lime" stroke-width="1"/>
<path d="M 397 281 L 401 289" fill="none" stroke="lime" stroke-width="1"/>
<path d="M 397 281 L 401 289" fill="none" stroke="lime" stroke-width="1"/>
<path d="M 397 281 L 401 289" fill="none" stroke="lime" stroke-width="1"/>
<path d="M 397 281 L 401 289" fill="none" stroke="lime" stroke-width="1"/>
<path d="M 397 281 L 401 289" fill="none" stroke="lime" stroke-width="1"/>
<path d="M 397 281 L 401 289" fill="none" stroke="lime" stroke-width="1"/>
<path d="M 397 281 L 401 289" fill="none" stroke="lime" stroke-width="1"/>
<path d="M 397 281 L 401 289" fill="none" stroke="lime" stroke-width="1"/>
<path d="M 397 281 L 401 289" fill="none" stroke="lime" stroke-width="1"/>
<path d="M 397 281 L 401 289" fill="none" stroke="lime" stroke-width="1"/>
<path d="M 397 281 L 401 289" fill="none" stroke="lime" stroke-width="1"/>
<path d="M 397 281 L 401 289" fill="none" stroke="lime" stroke-width="1"/>
<path d="M 397 281 L 401 289" fill="none" stroke="lime" stroke-width="1"/>
<path d="M 397 281 L 401 289" fill="none" stroke="lime" stroke-width="1"/>
<path d="M 397 281 L 401 289" fill="none" stroke="lime" stroke-width="1"/>
<path d="M 397 281 L 401 289" fill="none" stroke="lime" stroke-width="1"/>
<path d="M 397 281 L 401 289" fill="none" stroke="lime" stroke-width="1"/>
<path d="M 397 281 L 401 289" fill="none" stroke="lime" stroke-width="1"/>
<path d="M 397 281 L 401 289" fill="none" stroke="lime" stroke-width="1"/>
<path d="M 397 281 L 401 289" fill="none" stroke="lime" stroke-width="1"/>
<path d="M 397 281 L 401 289" fill="none" stroke="lime" stroke-width="1"/>
<path d="M 397 281 L 401 289" fill="none" stroke="lime" stroke-width="1"/>
<path d="M 397 281 L 401 289" fill="none" stroke="lime" stroke-width="1"/>
<path d="M 397 281 L 401 289" fill="none" stroke="lime" stroke-width="1"/>
<path d="M 397 281 L 401 289" fill="none" stroke="lime" stroke-width="1"/>
<path d="M 397 281 L 401 289" fill="none" stroke="lime" stroke-width="1"/>
<path d="M 397 281 L 401 289" fill="none" stroke="lime" stroke-width="1"/>
<path d="M 397 281 L 401 289" fill="none" stroke="lime" stroke-width="1"/>
<path d="M 397 281 L 401 289" fill="none" stroke="lime" stroke-width="1"/>
<path d="M 397 281 L 401 289" fill="none" stroke="lime" stroke-width="1"/>
<path d="M 397 281 L 401 289" fill="none" stroke="lime" stroke-width="1"/>
<path d="M 397 281 L 401 289" fill="none" stroke="lime" stroke-width="1"/>
<path d="M 397 281 L 401 289" fill="none" stroke="lime" stroke-width="1"/>
<path d="M 397 281 L 401 289" fill="none" stroke="lime" stroke-width="1"/>
<path d="M 397 281 L 401 289" fill="none" stroke="lime" stroke-width="1"/>
<path d="M 397 281 L 401 289" fill="none" stroke="lime" stroke-width="1"/>
<path d="M 397 281 L 401 289" fill="none" stroke="lime" stroke-width="1"/>
<path d="M 397 281 L 401 289" fill="none" stroke="lime" stroke-width="1"/>
<path d="M 397 281 L 401 289" fill="none" stroke="lime" stroke-width="1"/>
<path d="M 397 281 L 401 289" fill="none" stroke="lime" stroke-width="1"/>
<path d="M 397 281 L 401 289" fill="none" stroke="lime" stroke-width="1"/>
<path d="M 397 281 L 401 289" fill="none" stroke="lime" stroke-width="1"/>
<path d="M 397 281 L 401 289" fill="none" stroke="lime" stroke-width="1"/>
<path d="M 397 281 L 401 289" fill="none" stroke="lime" stroke-width="1"/>
<path d="M 397 281 L 401 289" fill="none" stroke="lime" stroke-width="1"/>
<path d="M 397 281 L 401 289" fill="none" stroke="lime" stroke-width="1"/>
<path d="M 397 281 L 401 289" fill="none" stroke="lime" stroke-width="1"/>
<path d="M 397 281 L 401 289" fill="none" stroke="lime" stroke-width="1"/>
<path d="M 397 281 L 401 289" fill="none" stroke="lime" stroke-width="1"/>
<path d="M 397 281 L 401 289" fill="none" stroke="lime" stroke-width="1"/>
<path d="M 397 281 L 401 289" fill="none" stroke="lime" stroke-width="1"/>
<path d="M 397 281 L 401 289" fill="none" stroke="lime" stroke-width="1"/>
<path d="M 397 281 L 401 289" fill="none" stroke="lime" stroke-width="1"/>
<path d="M 397 281 L 401 289" fill="none" stroke="lime" stroke-width="1"/>
<path d="M 397 281 L 401 289" fill="none" stroke="lime" stroke-width="1"/>
<path d="M 397 281 L 401 289" fill="none" stroke="lime" stroke-width="1"/>
<path d="M 397 281 L 401 289" fill="none" stroke="lime" stroke-width="1"/>
<path d="M 397 281 L 401 289" fill="none" stroke="lime" stroke-width="1"/>
<path d="M 397 281 L 402 289" fill="none" stroke="lime" stroke-width="1"/>
<path d="M 397 281 L 401 289" fill="none" stroke="lime" stroke-width="1"/>
<path d="M 397 281 L 401 289" fill="none" stroke="lime" stroke-width="1"/>
<path d="M 397 281 L 401 289" fill="none" stroke="red" stroke-width="1"/>
<text fill="black" font-family="monospace" font-size="20px" x="20" y="20">Population: 58807</text>
</svg>
