<?xml version="1.0" encoding="UTF-8" ?>
<svg height="300" width="700" xmlns="http://www.w3.org/2000/svg">
<style>svg { fill: white; }            </style>
<path d="M 0 290 L 100 250 L 150 150 L 300 200 L 400 285 L 550 285 L 699 220" fill="none" stroke="black" stroke-width="3"/>
<path d="M 250 30 L 250 30 L 250 30 L 250 31 L 250 32 L 250 32 L 251 33 L 251 34 L 252 36 L 253 37 L 254 39 L 255 41 L 256 43 L 257 44 L 259 46 L 261 49 L 262 51 L 265 54 L 267 57 L 270 60 L 272 63 L 275 66 L 277 69 L 280 73 L 283 77 L 285 80 L 288 84 L 292 88 L 295 92 L 299 97 L 302 101 L 306 106 L 310 111 L 314 116 L 319 121 L 323 126 L 328 132 L 333 138 L 338 144 L 343 150 L 348 156 L 354 163 L 359 170 L 364 177 L 370 185 L 375 192 L 380 200 L 385 208 L 390 217 L 395 225 L 399 234 L 404 243 L 408 251 L 412 260 L 417 269 L 421 278 L 425 287" fill="none" stroke="lime" stroke-width="1"/>
<path d="M 250 30 L 250 30 L 250 30 L 250 31 L 250 32 L 250 33 L 250 34 L 250 35 L 251 36 L 251 38 L 252 39 L 253 41 L 254 43 L 255 45 L 256 47 L 257 49 L 259 51 L 261 54 L 264 56 L 266 59 L 268 61 L 271 64 L 273 66 L 275 69 L 278 71 L 280 74 L 283 77 L 286 80 L 289 83 L 292 86 L 295 89 L 299 92 L 302 95 L 305 99 L 308 102 L 311 106 L 315 110 L 318 114 L 321 118 L 324 122 L 327 127 L 329 131 L 332 136 L 335 141 L 338 146 L 340 152 L 343 158 L 347 164 L 350 170 L 354 177 L 358 184 L 362 191 L 367 199 L 371 206 L 376 214 L 380 222 L 384 230 L 389 238 L 394 247 L 398 255 L 403 264 L 408 274 L 413 283 L 417 293" fill="none" stroke="lime" stroke-width="1"/>
<path d="M 250 30 L 250 30 L 250 31 L 250 32 L 250 33 L 250 34 L 251 36 L 252 38 L 252 40 L 253 42 L 254 45 L 256 48 L 257 51 L 259 54 L 261 57 L 262 60 L 264 63 L 266 66 L 268 70 L 270 74 L 272 77 L 274 81 L 276 85 L 279 89 L 282 94 L 284 98 L 288 103 L 291 107 L 294 112 L 298 118 L 302 123 L 306 129 L 310 135 L 315 141 L 319 147 L 323 154 L 328 161 L 332 168 L 337 176 L 342 184 L 348 192 L 353 200 L 359 208 L 365 217 L 371 226 L 378 235 L 384 245 L 390 254 L 397 264 L 403 274 L 410 284 L 416 295" fill="none" stroke="lime" stroke-width="1"/>
<path d="M 250 30 L 250 30 L 250 30 L 250 31 L 250 32 L 251 33 L 251 34 L 252 35 L 253 36 L 254 37 L 255 39 L 256 40 L 257 42 L 258 44 L 260 46 L 261 48 L 263 50 L 265 52 L 267 54 L 269 57 L 270 59 L 272 62 L 274 65 L 276 69 L 278 72 L 280 76 L 283 80 L 286 84 L 289 88 L 292 93 L 296 98 L 299 103 L 303 109 L 306 115 L 310 120 L 314 126 L 318 132 L 322 139 L 326 145 L 330 152 L 335 159 L 339 166 L 344 174 L 348 181 L 353 189 L 358 196 L 363 204 L 368 211 L 373 219 L 378 227 L 382 235 L 387 243 L 392 251 L 396 260 L 401 268 L 405 277 L 409 286" fill="none" stroke="lime" stroke-width="1"/>
<path d="M 250 30 L 250 30 L 250 30 L 250 31 L 251 32 L 251 33 L 252 35 L 253 36 L 254 37 L 256 39 L 257 41 L 259 42 L 261 44 L 263 46 L 265 48 L 267 50 L 269 52 L 271 55 L 274 58 L 277 60 L 280 63 L 283 66 L 286 69 L 289 72 L 292 75 L 295 79 L 298 83 L 300 87 L 303 91 L 306 95 L 308 100 L 311 105 L 313 110 L 316 115 L 319 120 L 322 126 L 324 131 L 327 137 L 330 143 L 333 149 L 336 155 L 340 162 L 343 169 L 346 176 L 350 183 L 353 190 L 357 197 L 360 205 L 364 212 L 368 220 L 372 228 L 376 237 L 380 245 L 384 254 L 389 262 L 394 271 L 399 280 L 404 289" fill="none" stroke="lime" stroke-width="1"/>
<path d="M 250 30 L 250 30 L 250 30 L 250 31 L 250 32 L 251 32 L 252 33 L 254 35 L 255 36 L 257 38 L 258 40 L 260 42 L 262 45 L 264 47 L 267 50 L 269 53 L 272 56 L 275 60 L 277 63 L 280 67 L 283 71 L 286 75 L 289 79 L 292 83 L 294 88 L 297 92 L 300 97 L 302 101 L 305 106 L 308 111 L 311 116 L 315 120 L 318 125 L 321 130 L 325 135 L 328 141 L 331 146 L 334 151 L 338 156 L 341 162 L 345 167 L 349 173 L 352 179 L 356 185 L 360 191 L 363 198 L 367 205 L 370 212 L 373 220 L 377 228 L 380 236 L 383 244 L 387 253 L 390 262 L 393 271 L 397 281 L 400 290" fill="none" stroke="lime" stroke-width="1"/>
<path d="M 250 30 L 249 30 L 249 30 L 249 31 L 249 31 L 249 32 L 249 33 L 250 34 L 251 35 L 251 36 L 252 38 L 254 39 L 255 41 L 257 43 L 260 46 L 262 49 L 265 52 L 268 55 L 271 58 L 274 62 L 278 66 L 281 69 L 284 73 L 288 77 L 292 82 L 296 87 L 300 92 L 304 97 L 308 103 L 312 109 L 316 115 L 320 121 L 324 128 L 328 135 L 332 142 L 336 149 L 340 156 L 344 163 L 348 171 L 352 178 L 356 186 L 359 194 L 363 203 L 367 212 L 371 220 L 375 230 L 379 239 L 383 249 L 387 258 L 391 268 L 395 278 L 398 289" fill="none" stroke="lime" stroke-width="1"/>
<path d="M 250 30 L 250 30 L 250 30 L 250 31 L 250 32 L 250 33 L 251 34 L 251 35 L 252 37 L 253 39 L 254 41 L 254 44 L 255 47 L 256 49 L 258 52 L 259 56 L 260 59 L 262 63 L 264 67 L 265 71 L 267 75 L 269 79 L 271 84 L 273 88 L 276 93 L 278 97 L 280 102 L 283 108 L 286 113 L 288 119 L 291 125 L 294 131 L 297 137 L 301 143 L 305 149 L 309 156 L 313 162 L 317 169 L 321 176 L 326 183 L 331 191 L 336 198 L 342 206 L 347 214 L 353 221 L 358 229 L 364 237 L 369 245 L 375 253 L 381 261 L 386 269 L 392 278 L 398 286" fill="none" stroke="lime" stroke-width="1"/>
<path d="M 250 30 L 250 30 L 250 31 L 250 32 L 250 33 L 250 35 L 250 36 L 250 38 L 250 40 L 251 42 L 252 44 L 252 47 L 253 49 L 254 52 L 255 55 L 256 58 L 258 61 L 259 64 L 261 68 L 263 72 L 266 76 L 268 80 L 271 84 L 274 89 L 277 94 L 281 99 L 285 104 L 289 110 L 292 115 L 296 121 L 300 126 L 304 132 L 308 138 L 312 144 L 316 150 L 321 157 L 325 163 L 329 171 L 333 178 L 338 185 L 342 193 L 346 201 L 351 209 L 355 217 L 360 225 L 365 234 L 370 242 L 375 251 L 380 260 L 386 269 L 392 278 L 398 287" fill="none" stroke="lime" stroke-width="1"/>
<path d="M 250 30 L 250 30 L 250 31 L 250 31 L 250 32 L 250 33 L 251 34 L 252 35 L 253 37 L 253 39 L 254 41 L 256 43 L 257 45 L 259 48 L 261 50 L 264 53 L 266 56 L 269 59 L 271 62 L 274 66 L 277 69 L 280 73 L 283 78 L 286 82 L 289 87 L 293 92 L 296 98 L 300 103 L 304 109 L 308 114 L 312 120 L 316 127 L 320 133 L 324 139 L 328 146 L 332 153 L 337 160 L 341 168 L 346 176 L 350 184 L 354 192 L 359 200 L 363 208 L 367 217 L 371 226 L 375 235 L 379 245 L 383 255 L 388 265 L 392 275 L 396 285" fill="none" stroke="lime" stroke-width="1"/>
<path d="M 250 30 L 250 30 L 250 31 L 250 32 L 250 33 L 250 35 L 250 36 L 251 38 L 251 40 L 252 42 L 253 44 L 254 46 L 255 49 L 257 51 L 259 54 L 261 57 L 263 60 L 265 64 L 268 67 L 271 71 L 274 75 L 278 79 L 282 83 L 285 88 L 289 92 L 293 97 L 297 102 L 300 106 L 304 111 L 307 116 L 311 122 L 315 127 L 319 133 L 322 139 L 326 145 L 330 151 L 334 157 L 338 164 L 342 171 L 346 178 L 350 185 L 354 193 L 358 201 L 362 209 L 366 217 L 369 225 L 373 234 L 377 243 L 380 252 L 384 262 L 388 272 L 392 282" fill="none" stroke="lime" stroke-width="1"/>
<path d="M 250 30 L 250 30 L 250 30 L 250 31 L 250 32 L 250 33 L 251 34 L 251 36 L 251 38 L 252 40 L 253 42 L 254 45 L 255 48 L 256 51 L 257 55 L 258 58 L 259 63 L 261 67 L 262 71 L 264 76 L 266 81 L 268 85 L 270 90 L 273 96 L 276 101 L 279 106 L 282 111 L 284 116 L 287 121 L 290 127 L 294 132 L 297 138 L 301 145 L 305 151 L 309 158 L 313 164 L 317 171 L 322 178 L 327 186 L 332 193 L 338 201 L 344 209 L 349 217 L 355 226 L 361 235 L 367 244 L 373 254 L 380 264 L 386 274" fill="none" stroke="lime" stroke-width="1"/>
<path d="M 250 30 L 250 30 L 250 30 L 250 31 L 250 32 L 251 34 L 251 35 L 252 37 L 253 39 L 254 41 L 255 44 L 256 46 L 257 49 L 258 52 L 260 55 L 261 58 L 263 61 L 265 64 L 267 67 L 269 71 L 271 75 L 274 78 L 277 82 L 279 85 L 282 89 L 285 93 L 288 98 L 291 102 L 294 107 L 297 111 L 301 116 L 304 121 L 307 127 L 311 132 L 314 138 L 317 145 L 320 151 L 324 158 L 327 165 L 330 172 L 333 179 L 337 187 L 340 194 L 344 202 L 347 210 L 351 218 L 355 227 L 359 235 L 363 244 L 368 252 L 372 261 L 377 270" fill="none" stroke="lime" stroke-width="1"/>
<path d="M 250 30 L 250 30 L 250 31 L 250 32 L 250 33 L 250 35 L 250 37 L 250 39 L 250 41 L 251 43 L 252 46 L 253 48 L 254 51 L 256 54 L 257 57 L 259 60 L 261 63 L 263 67 L 266 71 L 268 75 L 271 80 L 274 85 L 277 90 L 280 95 L 283 101 L 287 106 L 290 112 L 293 118 L 297 124 L 301 131 L 305 137 L 309 144 L 313 151 L 317 159 L 322 166 L 326 174 L 331 182 L 336 191 L 341 200 L 347 208 L 352 218 L 357 227 L 363 237 L 368 247 L 373 258 L 379 269" fill="none" stroke="lime" stroke-width="1"/>
<path d="M 250 30 L 250 30 L 250 31 L 250 32 L 251 33 L 251 34 L 252 35 L 253 37 L 255 39 L 256 40 L 257 42 L 259 44 L 260 46 L 261 48 L 263 50 L 265 52 L 267 54 L 268 56 L 270 58 L 273 60 L 275 62 L 277 65 L 280 68 L 282 71 L 284 74 L 287 77 L 290 80 L 292 84 L 295 88 L 298 92 L 301 96 L 304 101 L 307 105 L 310 110 L 313 115 L 316 120 L 319 126 L 323 132 L 326 139 L 329 145 L 333 152 L 336 159 L 339 166 L 343 174 L 346 181 L 350 190 L 353 198 L 356 207 L 359 216 L 362 225 L 365 234 L 369 244 L 372 254 L 375 264" fill="none" stroke="lime" stroke-width="1"/>
<path d="M 250 30 L 250 30 L 250 30 L 249 31 L 249 32 L 249 32 L 250 33 L 250 34 L 250 36 L 251 37 L 251 38 L 252 40 L 253 41 L 254 42 L 255 44 L 256 46 L 257 47 L 258 50 L 260 52 L 262 55 L 263 58 L 265 61 L 267 64 L 269 67 L 271 70 L 274 74 L 276 78 L 278 82 L 280 87 L 282 92 L 285 97 L 287 102 L 290 107 L 292 112 L 295 117 L 298 123 L 302 129 L 306 135 L 309 142 L 313 149 L 316 156 L 320 163 L 324 171 L 329 179 L 333 186 L 337 194 L 341 202 L 345 210 L 350 218 L 354 227 L 358 236 L 363 245 L 367 254 L 372 264" fill="none" stroke="lime" stroke-width="1"/>
<path d="M 250 30 L 250 30 L 250 30 L 250 31 L 250 32 L 251 34 L 252 35 L 253 37 L 254 38 L 255 39 L 256 41 L 258 43 L 259 44 L 261 46 L 262 48 L 264 50 L 266 53 L 268 55 L 270 59 L 272 62 L 274 65 L 276 69 L 278 72 L 281 76 L 284 80 L 286 83 L 289 87 L 293 91 L 296 96 L 299 100 L 303 105 L 307 110 L 311 115 L 315 120 L 319 125 L 322 131 L 326 136 L 329 141 L 333 147 L 336 153 L 340 159 L 343 165 L 346 172 L 349 178 L 351 185 L 354 192 L 356 199 L 358 206 L 360 213 L 361 221 L 363 228 L 364 236 L 366 245 L 367 253 L 369 262" fill="none" stroke="lime" stroke-width="1"/>
<path d="M 250 30 L 250 30 L 250 30 L 250 31 L 250 32 L 250 33 L 250 34 L 251 35 L 251 37 L 252 38 L 253 40 L 253 42 L 254 44 L 255 46 L 256 48 L 257 51 L 258 54 L 259 57 L 261 61 L 262 64 L 264 68 L 266 72 L 268 75 L 271 79 L 273 83 L 275 87 L 278 91 L 280 94 L 282 98 L 284 103 L 286 107 L 288 111 L 290 115 L 293 119 L 295 124 L 298 128 L 300 133 L 303 138 L 306 143 L 309 148 L 312 154 L 315 160 L 318 165 L 322 172 L 325 178 L 329 185 L 333 192 L 336 200 L 340 208 L 344 216 L 348 224 L 353 232 L 357 240 L 361 248 L 366 257" fill="none" stroke="lime" stroke-width="1"/>
<path d="M 250 30 L 249 30 L 249 31 L 249 32 L 249 33 L 249 35 L 249 36 L 249 38 L 249 41 L 249 43 L 249 46 L 250 48 L 250 51 L 251 54 L 253 57 L 254 61 L 255 65 L 257 69 L 259 74 L 261 78 L 264 83 L 266 88 L 268 93 L 271 99 L 274 104 L 277 110 L 280 116 L 283 122 L 286 128 L 289 134 L 293 141 L 296 147 L 300 154 L 303 162 L 307 169 L 311 176 L 315 183 L 319 190 L 322 198 L 326 205 L 330 213 L 333 221 L 337 229 L 341 237" fill="none" stroke="lime" stroke-width="1"/>
<path d="M 250 30 L 250 30 L 250 30 L 250 31 L 250 32 L 250 34 L 251 35 L 251 37 L 251 40 L 252 42 L 252 45 L 253 47 L 254 50 L 254 53 L 255 56 L 256 59 L 256 62 L 257 66 L 258 70 L 259 73 L 260 77 L 261 81 L 262 85 L 264 89 L 265 93 L 267 97 L 269 101 L 271 105 L 273 110 L 275 115 L 277 120 L 280 125 L 283 130 L 286 136 L 289 142 L 292 148 L 296 155 L 299 161 L 303 168 L 307 174 L 311 181 L 315 188 L 320 196 L 324 203 L 328 211 L 332 219 L 336 227 L 339 235" fill="none" stroke="lime" stroke-width="1"/>
<path d="M 250 30 L 249 30 L 249 30 L 249 31 L 249 32 L 249 34 L 249 35 L 248 37 L 248 38 L 247 40 L 247 42 L 246 45 L 246 47 L 245 49 L 245 52 L 244 55 L 244 58 L 243 62 L 243 65 L 243 69 L 243 73 L 243 78 L 243 83 L 243 88 L 243 93 L 243 98 L 244 104 L 244 109 L 244 115 L 245 121 L 245 127 L 246 133 L 247 139 L 248 145 L 249 152 L 250 158 L 252 165 L 254 171 L 256 178 L 258 185 L 261 193" fill="none" stroke="lime" stroke-width="1"/>
<path d="M 250 30 L 250 30 L 249 30 L 249 31 L 249 32 L 249 34 L 249 35 L 249 37 L 249 40 L 249 42 L 249 45 L 249 48 L 249 51 L 249 54 L 249 58 L 250 61 L 250 65 L 250 68 L 251 73 L 251 77 L 251 81 L 251 86 L 252 91 L 252 96 L 252 102 L 252 108 L 253 113 L 253 119 L 253 125 L 253 130 L 253 136 L 253 143 L 253 149 L 253 156 L 253 163 L 253 170 L 253 177 L 253 184 L 253 191" fill="none" stroke="lime" stroke-width="1"/>
<path d="M 250 30 L 249 30 L 249 31 L 249 32 L 249 32 L 248 34 L 247 35 L 247 37 L 245 38 L 244 40 L 243 42 L 241 43 L 239 45 L 237 47 L 235 49 L 233 51 L 231 53 L 230 56 L 228 58 L 226 61 L 224 64 L 223 68 L 221 72 L 219 76 L 217 80 L 216 84 L 215 89 L 213 93 L 212 98 L 211 103 L 210 109 L 208 114 L 207 120 L 206 126 L 204 133 L 203 139 L 202 146 L 200 152 L 199 159 L 198 166" fill="none" stroke="lime" stroke-width="1"/>
<path d="M 250 30 L 249 30 L 249 30 L 249 31 L 249 32 L 248 33 L 247 33 L 246 34 L 245 35 L 244 37 L 242 39 L 241 41 L 240 43 L 238 46 L 237 48 L 235 51 L 233 54 L 231 56 L 229 59 L 227 62 L 225 65 L 224 68 L 223 71 L 221 74 L 220 78 L 219 81 L 219 84 L 218 88 L 217 91 L 215 95 L 214 99 L 212 103 L 210 108 L 209 112 L 207 117 L 205 122 L 204 128 L 202 133 L 201 138 L 199 144 L 198 151 L 197 157 L 195 164 L 194 171" fill="none" stroke="lime" stroke-width="1"/>
<path d="M 250 30 L 249 30 L 249 30 L 250 31 L 250 32 L 250 33 L 250 34 L 251 35 L 251 37 L 252 39 L 253 41 L 254 43 L 255 45 L 256 48 L 258 51 L 260 53 L 262 56 L 264 59 L 266 62 L 268 66 L 271 69 L 274 73 L 277 76 L 280 80 L 283 84 L 287 88 L 291 92 L 295 96 L 299 101 L 304 106 L 309 112 L 313 118 L 318 124 L 323 130 L 328 136 L 333 143 L 337 149 L 342 156 L 346 163 L 351 169 L 356 177 L 360 184 L 365 191 L 370 198 L 375 205 L 380 213 L 386 220 L 391 227 L 396 235 L 401 243 L 406 251 L 411 258 L 416 267 L 421 275 L 425 283 L 429 292" fill="none" stroke="red" stroke-width="1"/>
<text fill="black" font-family="monospace" font-size="20px" x="20" y="20">Population: 24880</text>
</svg>
